<svg xmlns="http://www.w3.org/2000/svg" xmlns:xlink="http://www.w3.org/1999/xlink" width="21" height="21" viewBox="0 0 21 21"><defs><clipPath id="a"><rect width="21" height="21" transform="translate(453 34)" fill="#fff" stroke="#707070" stroke-width="1"/></clipPath></defs><g transform="translate(-453 -34)" clip-path="url(#a)"><g transform="translate(450.9 31.9)"><path d="M21.525,12.6A8.925,8.925,0,1,1,12.6,3.675,8.919,8.919,0,0,1,21.525,12.6Z" fill="#fff"/><path d="M11.025,21.525V18.637a.262.262,0,0,1,.525,0v2.888H12.6V18.112a.262.262,0,1,1,.525,0v3.413h1.05V18.637a.262.262,0,0,1,.525,0v2.888h.945a.96.96,0,0,0,.1-.578V18.9c0-1.155-1-2.73-2.258-2.73H12.18c-1.208,0-2.258,1.626-2.258,2.73v2.047a1.862,1.862,0,0,0,.107.578Z" fill="#455a64"/><path d="M21.053,13.859a5.136,5.136,0,0,0-1.261-.209h-.051a12.093,12.093,0,0,0-1.524.158c-.051,0-.051,0-.051-.053s0-.051.051-.051,1.05-.158,1.628-.158a6.566,6.566,0,0,1,1.313.209c.051,0,.051.053.051.1C21.1,13.808,21.1,13.859,21.053,13.859Z" fill="#455a64"/><path d="M20.9,14.28a5.939,5.939,0,0,0-1.366-.209c-.472,0-1.575.1-1.626.1s-.053,0-.053-.053,0-.051.053-.051,1.155-.1,1.626-.1a5.355,5.355,0,0,1,1.366.209c.051,0,.051.053.051.1C20.947,14.228,20.947,14.28,20.9,14.28Z" fill="#455a64"/><path d="M4.1,13.859c-.053,0-.053,0-.053-.051s0-.053.053-.1a9.043,9.043,0,0,1,1.733-.262c.418,0,1.838.1,1.889.1a.051.051,0,0,1,.053.051.052.052,0,0,1-.053.053s-1.417-.1-1.838-.1C5.3,13.65,4.516,13.755,4.1,13.859Z" fill="#455a64"/><path d="M4.3,14.647a.05.05,0,0,1-.051-.051v-.1a5.44,5.44,0,0,1,1.522-.525,13,13,0,0,1,2.2.051.052.052,0,0,1,.053.053.052.052,0,0,1-.053.051,12.093,12.093,0,0,0-2.151-.051A5.893,5.893,0,0,0,4.3,14.647Z" fill="#455a64"/><path d="M7.455,12.337c0-2.309,2.416-4.463,5.408-4.463s5.408,2.1,5.408,4.463-1.733,3.938-5.408,3.938S7.455,14.647,7.455,12.337Z" fill="#455a64"/><path d="M15.016,8.558A3.3,3.3,0,0,1,17.534,7.35c.632.63.211,2.52,0,3.045Z" fill="#455a64"/><path d="M10.709,8.558A3.3,3.3,0,0,0,8.191,7.35c-.632.63-.211,2.52,0,3.045Z" fill="#455a64"/><path d="M10.553,18.847H9.083a1.576,1.576,0,0,1-1.47-.788,4.078,4.078,0,0,0-1.366-1.731c-.156-.107-.051-.211.211-.211a1.61,1.61,0,0,1,1.1.578c.369.472.787,1.05,1.47,1.05a2.382,2.382,0,0,0,1.838-.474Z" fill="#455a64"/><path d="M12.6,2.1A10.5,10.5,0,1,0,23.1,12.6,10.531,10.531,0,0,0,12.6,2.1Zm0,18.9A8.4,8.4,0,1,1,21,12.6,8.424,8.424,0,0,1,12.6,21Z" fill="#00bcd4"/></g></g></svg>