<svg xmlns="http://www.w3.org/2000/svg" xmlns:xlink="http://www.w3.org/1999/xlink" width="21" height="21" viewBox="0 0 21 21"><defs><clipPath id="a"><rect width="21" height="21" transform="translate(417 34)" fill="#fff" stroke="#707070" stroke-width="1"/></clipPath></defs><g transform="translate(-417 -34)" clip-path="url(#a)"><g transform="translate(414.9 31.9)"><path d="M23.1,12.6A10.5,10.5,0,1,1,12.6,2.1,10.5,10.5,0,0,1,23.1,12.6Z" fill="#0288d1"/><path d="M7.35,9.975h2.1V17.85H7.35Z" fill="#fff"/><path d="M8.394,8.925H8.382A1,1,0,0,1,7.35,7.875a1.05,1.05,0,1,1,2.1,0A1.011,1.011,0,0,1,8.394,8.925Z" fill="#fff"/><path d="M18.375,12.862a2.886,2.886,0,0,0-5.25-1.657V9.975h-2.1V17.85h2.1v-4.2a1.575,1.575,0,0,1,3.15,0v4.2h2.1Z" fill="#fff"/></g></g></svg>