<svg xmlns="http://www.w3.org/2000/svg" xmlns:xlink="http://www.w3.org/1999/xlink" width="21" height="21" viewBox="0 0 21 21"><defs><clipPath id="a"><rect width="21" height="21" transform="translate(345 34)" fill="#03a9f4"/></clipPath></defs><g transform="translate(-345 -34)" clip-path="url(#a)"><g transform="translate(342.9 31.9)"><path d="M23.1,12.6A10.5,10.5,0,1,1,12.6,2.1,10.5,10.5,0,0,1,23.1,12.6Z" fill="#03a9f4"/><path d="M18.9,8.989a5.893,5.893,0,0,1-1.575.461A3.846,3.846,0,0,0,18.9,7.875a7.494,7.494,0,0,1-1.991.72A2.537,2.537,0,0,0,12.6,10.5v1.05c-2.1,0-4.147-1.6-5.422-3.15a2.536,2.536,0,0,0-.349,1.29A3.349,3.349,0,0,0,8.4,12.075a4.837,4.837,0,0,1-1.575-.525v.031A2.354,2.354,0,0,0,8.878,13.9a3.285,3.285,0,0,1-1.491.273c.33,1.015,1.981,1.552,3.113,1.575A6.628,6.628,0,0,1,6.825,16.8a3.725,3.725,0,0,1-.525-.012,8.171,8.171,0,0,0,4.2,1.062,7.052,7.052,0,0,0,7.35-7.02c0-.111,0-.484-.01-.593A3.979,3.979,0,0,0,18.9,8.989" fill="#fff"/></g></g></svg>